HIERARCHY
ROOT Hips
{
  OFFSET 90.7885 88.945 -76.2838
  CHANNELS 6 Xposition Yposition Zposition Zrotation Xrotation Yrotation
  JOINT LeftUpLeg
  {
    OFFSET 8.64259 1.95398 -2.38835
    CHANNELS 3 Zrotation Xrotation Yrotation
    JOINT LeftLeg
    {
      OFFSET 43.7702 0 0
      CHANNELS 3 Zrotation Xrotation Yrotation
      JOINT LeftFoot
      {
        OFFSET 40.6238 0 0
        CHANNELS 3 Zrotation Xrotation Yrotation
        JOINT LeftToeBase
        {
          OFFSET 12.7242 0 0
          CHANNELS 3 Zrotation Xrotation Yrotation
          End Site
          {
            OFFSET 0 0 0
          }
        }
      }
    }
  }
  JOINT RightUpLeg
  {
    OFFSET -8.2249 1.95398 -2.59336
    CHANNELS 3 Zrotation Xrotation Yrotation
    JOINT RightLeg
    {
      OFFSET 43.5653 0 0
      CHANNELS 3 Zrotation Xrotation Yrotation
      JOINT RightFoot
      {
        OFFSET 40.6238 0 0
        CHANNELS 3 Zrotation Xrotation Yrotation
        JOINT RightToeBase
        {
          OFFSET 12.7242 0 0
          CHANNELS 3 Zrotation Xrotation Yrotation
          End Site
          {
            OFFSET 0 0 0
          }
        }
      }
    }
  }
  JOINT Spine
  {
    OFFSET 0.165834 0.87714 6.61349
    CHANNELS 3 Zrotation Xrotation Yrotation
    JOINT Spine1
    {
      OFFSET 7.38963 1.71661e-005 0
      CHANNELS 3 Zrotation Xrotation Yrotation
      JOINT Spine2
      {
        OFFSET 11.9445 1.14441e-005 0
        CHANNELS 3 Zrotation Xrotation Yrotation
        JOINT Spine3
        {
          OFFSET 14.7254 4.19617e-005 0
          CHANNELS 3 Zrotation Xrotation Yrotation
          JOINT Spine4
          {
            OFFSET 10.9679 0 0
            CHANNELS 3 Zrotation Xrotation Yrotation
            JOINT RightShoulder
            {
              OFFSET 2.46616 -1.6653 3.69651
              CHANNELS 3 Zrotation Xrotation Yrotation
              JOINT RightArm
              {
                OFFSET 13.0012 0 0
                CHANNELS 3 Zrotation Xrotation Yrotation
                JOINT RightForeArm
                {
                  OFFSET 28.7848 1.52588e-005 0
                  CHANNELS 3 Zrotation Xrotation Yrotation
                  JOINT RightHand
                  {
                    OFFSET 26.5688 1.52588e-005 0
                    CHANNELS 3 Zrotation Xrotation Yrotation
                    End Site
                    {
                      OFFSET 0 0 0
                    }
                  }
                }
              }
            }
            JOINT LeftShoulder
            {
              OFFSET 2.38034 -1.29275 -3.7523
              CHANNELS 3 Zrotation Xrotation Yrotation
              JOINT LeftArm
              {
                OFFSET 16.3182 6.10352e-005 0
                CHANNELS 3 Zrotation Xrotation Yrotation
                JOINT LeftForeArm
                {
                  OFFSET 27.0901 0 0
                  CHANNELS 3 Zrotation Xrotation Yrotation
                  JOINT LeftHand
                  {
                    OFFSET 24.5451 1.52588e-005 0
                    CHANNELS 3 Zrotation Xrotation Yrotation
                    End Site
                    {
                      OFFSET 0 0 0
                    }
                  }
                }
              }
            }
            JOINT Neck
            {
              OFFSET 5.0226 -0.0266342 0
              CHANNELS 3 Zrotation Xrotation Yrotation
              JOINT Head
              {
                OFFSET 6.69363 2.86102e-005 0
                CHANNELS 3 Zrotation Xrotation Yrotation
                End Site
                {
                  OFFSET 0 0 0
                }
              }
            }
          }
        }
      }
    }
  }
}
MOTION
Frames:	6
Frame Time:	0.0416667
-338.822 82.9081 318.923 59.856 64.6399 125.677 -178.401 0.355169 106.207 -64.4168 24.5122 16.25 17.4343 -9.17401 -13.1859 102.678 -7.85264 -16.1867 155.84 37.4437 95.4518 -55.1598 -0.979273 15.9774 86.5472 -9.58611 8.09971 17.3247 2.05627 -1.52614 -3.30546 7.03677 -91.6658 12.7361 -7.36055 -2.4577 1.08441 -7.46153 -2.12981 -21.5623 -6.28121 -4.5623 -1.54968 -6.28122 -4.56231 117.175 -42.2342 -56.4632 37.2373 -26.0198 31.8886 95.0245 -88.1459 -179.046 57.2707 -23.7123 -63.959 -79.3408 -2.90922 91.6328 -81.0223 -8.87356 -42.0964 10.9739 1.04352 -63.836 18.3462 -10.0661 -55.418 70.3257 -17.4375 -22.3977 -59.7935 -10.3026 23.9589 
-331.478 81.272 312.38 74.2395 45.9737 115.861 -174.029 12.2263 104.048 -93.0924 11.7487 8.76482 55.436 -1.27629 4.95579 82.9549 -5.60391 4.14526 163.228 32.0043 104.689 -58.1722 -0.297927 8.323 97.3097 -12.6908 12.6612 16.302 -1.31515 4.72271 -1.48056 7.6676 -92.085 11.4626 -3.91896 -3.74743 -0.207395 -4.07996 -3.57139 -22.7235 -2.61306 -4.7506 -2.71091 -2.61305 -4.75061 104.068 -45.5068 -78.995 29.1026 -9.37339 2.90362 -109.918 -64.3502 -68.9196 54.2878 -6.66058 -22.5347 -89.3052 -35.2262 75.3343 -27.8651 -30.266 -18.5598 -13.6256 -1.03378 -85.7424 29.5448 -14.8887 -52.5115 58.3306 -1.57504 -17.0906 -42.0446 4.2878 16.7902 
-325.116 79.2532 305.803 78.5122 27.6364 109.572 -163.952 36.4966 95.6883 -112.506 8.38436 6.45044 61.0586 0.685027 9.61091 67.4214 -6.88361 8.96603 173.36 30.5674 103.894 -60.3716 -11.1028 2.51287 100.898 -16.8772 8.07167 18.6477 -0.506003 2.98079 0.266903 7.93335 -91.9208 10.9821 -0.358512 -3.79468 -0.694385 -0.525024 -3.77528 -23.1855 0.797604 -3.72731 -3.17285 0.797617 -3.72731 89.8405 -33.1793 -106.058 32.6054 14.904 -21.212 -28.8843 11.0188 -87.7146 -27.1568 0.43705 -11.6399 -84.3262 -44.6229 86.5651 1.77829 -25.7488 11.7859 -6.13729 13.0476 -108.113 45.319 -20.9615 -50.2871 43.5014 10.6598 0.161074 -22.0342 9.43651 3.24304 
-315.143 79.9817 296.695 80.25 23.5874 103.884 -162.899 52.167 90.6043 -113.56 9.74364 6.29856 66.4776 3.65062 15.3192 30.1369 5.89709 -7.38855 176.01 17.5582 97.8293 -56.1767 -17.9054 -0.801299 102.74 -20.8967 0.238023 21.8001 -3.5414 8.51167 1.80465 7.69751 -91.2565 11.5207 3.00249 -2.81331 -0.150128 2.8758 -2.94267 -22.7015 3.70903 -1.78056 -2.68888 3.70906 -1.78056 90.4555 -23.68 -108.289 39.2391 33.4354 -37.2501 -37.5094 -13.7575 -108.994 -41.5237 -0.998923 -9.31162 -83.2537 -39.7619 87.7177 14.2942 -9.68903 28.2314 38.3895 -18.8766 -127.895 47.7322 -12.5013 -29.6165 33.6974 6.71036 4.96822 -15.1921 4.13168 0.432815 
-302.861 83.9766 285.385 82.4376 26.5828 99.5901 -170.953 56.1768 91.5355 -96.9645 -3.82408 4.26422 74.1656 6.63422 5.89292 24.3729 9.17801 -11.5202 172.635 0.892827 88.7297 -41.9029 -24.4499 -2.36605 80.4978 -10.7799 -3.74185 42.8433 -4.88518 12.4318 2.84761 7.66215 -90.7434 11.6056 5.31666 -2.03165 -0.0564026 5.22212 -2.26418 -22.6782 5.68072 -0.335051 -2.66556 5.68073 -0.335045 95.0625 -10.5489 -103.122 50.217 39.5606 -39.9419 -37.7123 -11.3945 -112.915 -42.2427 -0.727322 -10.8578 -83.3522 -31.1588 86.3362 6.46338 6.46933 37.2041 52.4813 -37.7451 -125.081 43.1789 -9.83566 -27.3274 31.2857 0.213894 5.49774 -16.6734 -1.86814 -1.68997 
-289.479 88.4495 273.356 82.316 33.2271 96.598 -177.306 54.335 89.8726 -71.9369 -4.20879 2.32017 74.2694 7.09252 5.0424 23.8256 9.19101 -11.2694 170.215 -12.6586 83.5112 -27.3035 -27.8756 -5.23212 57.3537 1.10715 -0.716353 32.5124 -4.45469 11.0956 3.11147 7.55225 -89.9312 11.8128 6.22011 -0.533241 0.156598 6.1906 -0.807539 -22.4957 6.09176 1.36799 -2.48303 6.09175 1.368 96.2348 -5.32858 -102.168 46.5124 42.0134 -30.3774 -42.3665 -11.3249 -117.874 -36.7139 -1.41447 -10.9646 -83.2688 -20.9336 84.5157 -17.21 20.2061 44.4048 66.9667 -44.7932 -110.543 38.4207 -10.331 -31.506 31.5542 -7.80035 -2.48564 -20.5601 -6.48485 0.100268 
